<svg xmlns="http://www.w3.org/2000/svg" viewBox="0 0 33 33" width="132" height="132"> <path fill="#000000" d="M0,0h7v1h-7z M9,0h1v1h-1z M11,0h1v1h-1z M13,0h2v1h-2z M18,0h1v1h-1z M21,0h2v1h-2z M24,0h1v1h-1z M26,0h7v1h-7z M0,1h1v1h-1z M6,1h1v1h-1z M9,1h4v1h-4z M15,1h1v1h-1z M18,1h1v1h-1z M24,1h1v1h-1z M26,1h1v1h-1z M32,1h1v1h-1z M0,2h1v1h-1z M2,2h3v1h-3z M6,2h1v1h-1z M8,2h1v1h-1z M10,2h5v1h-5z M18,2h2v1h-2z M21,2h1v1h-1z M23,2h2v1h-2z M26,2h1v1h-1z M28,2h3v1h-3z M32,2h1v1h-1z M0,3h1v1h-1z M2,3h3v1h-3z M6,3h1v1h-1z M8,3h1v1h-1z M10,3h3v1h-3z M15,3h3v1h-3z M20,3h2v1h-2z M23,3h2v1h-2z M26,3h1v1h-1z M28,3h3v1h-3z M32,3h1v1h-1z M0,4h1v1h-1z M2,4h3v1h-3z M6,4h1v1h-1z M10,4h2v1h-2z M14,4h1v1h-1z M16,4h3v1h-3z M20,4h1v1h-1z M22,4h2v1h-2z M26,4h1v1h-1z M28,4h3v1h-3z M32,4h1v1h-1z M0,5h1v1h-1z M6,5h1v1h-1z M10,5h1v1h-1z M16,5h1v1h-1z M18,5h1v1h-1z M21,5h1v1h-1z M24,5h1v1h-1z M26,5h1v1h-1z M32,5h1v1h-1z M0,6h7v1h-7z M8,6h1v1h-1z M10,6h1v1h-1z M12,6h1v1h-1z M14,6h1v1h-1z M16,6h1v1h-1z M18,6h1v1h-1z M20,6h1v1h-1z M22,6h1v1h-1z M24,6h1v1h-1z M26,6h7v1h-7z M13,7h2v1h-2z M21,7h1v1h-1z M23,7h1v1h-1z M3,8h2v1h-2z M6,8h2v1h-2z M9,8h1v1h-1z M11,8h4v1h-4z M16,8h1v1h-1z M19,8h1v1h-1z M21,8h1v1h-1z M23,8h2v1h-2z M29,8h2v1h-2z M1,9h1v1h-1z M3,9h2v1h-2z M9,9h2v1h-2z M17,9h2v1h-2z M20,9h1v1h-1z M22,9h1v1h-1z M24,9h2v1h-2z M27,9h3v1h-3z M31,9h1v1h-1z M2,10h2v1h-2z M5,10h3v1h-3z M10,10h1v1h-1z M15,10h1v1h-1z M17,10h2v1h-2z M21,10h1v1h-1z M23,10h1v1h-1z M25,10h1v1h-1z M27,10h1v1h-1z M29,10h1v1h-1z M31,10h2v1h-2z M0,11h2v1h-2z M3,11h1v1h-1z M7,11h1v1h-1z M9,11h2v1h-2z M12,11h1v1h-1z M16,11h3v1h-3z M20,11h1v1h-1z M26,11h3v1h-3z M30,11h2v1h-2z M0,12h1v1h-1z M2,12h1v1h-1z M5,12h2v1h-2z M8,12h2v1h-2z M12,12h5v1h-5z M18,12h1v1h-1z M20,12h3v1h-3z M24,12h1v1h-1z M26,12h1v1h-1z M28,12h2v1h-2z M31,12h2v1h-2z M0,13h1v1h-1z M3,13h3v1h-3z M8,13h1v1h-1z M10,13h1v1h-1z M12,13h1v1h-1z M14,13h3v1h-3z M21,13h3v1h-3z M25,13h1v1h-1z M30,13h2v1h-2z M2,14h1v1h-1z M5,14h4v1h-4z M10,14h1v1h-1z M12,14h1v1h-1z M15,14h1v1h-1z M17,14h2v1h-2z M20,14h1v1h-1z M25,14h1v1h-1z M28,14h3v1h-3z M0,15h1v1h-1z M2,15h3v1h-3z M7,15h2v1h-2z M11,15h3v1h-3z M15,15h3v1h-3z M19,15h2v1h-2z M24,15h2v1h-2z M28,15h1v1h-1z M30,15h2v1h-2z M0,16h2v1h-2z M5,16h4v1h-4z M11,16h2v1h-2z M15,16h1v1h-1z M18,16h1v1h-1z M20,16h1v1h-1z M25,16h2v1h-2z M28,16h1v1h-1z M30,16h3v1h-3z M0,17h1v1h-1z M2,17h2v1h-2z M5,17h1v1h-1z M7,17h1v1h-1z M11,17h1v1h-1z M13,17h1v1h-1z M15,17h3v1h-3z M22,17h1v1h-1z M24,17h1v1h-1z M26,17h4v1h-4z M5,18h3v1h-3z M12,18h3v1h-3z M18,18h3v1h-3z M23,18h1v1h-1z M27,18h1v1h-1z M29,18h2v1h-2z M2,19h3v1h-3z M8,19h3v1h-3z M14,19h1v1h-1z M17,19h1v1h-1z M20,19h1v1h-1z M23,19h3v1h-3z M27,19h5v1h-5z M3,20h2v1h-2z M6,20h1v1h-1z M9,20h2v1h-2z M14,20h1v1h-1z M16,20h4v1h-4z M26,20h2v1h-2z M29,20h1v1h-1z M32,20h1v1h-1z M0,21h1v1h-1z M2,21h1v1h-1z M5,21h1v1h-1z M7,21h1v1h-1z M10,21h4v1h-4z M15,21h2v1h-2z M18,21h1v1h-1z M22,21h1v1h-1z M24,21h1v1h-1z M26,21h1v1h-1z M28,21h1v1h-1z M30,21h1v1h-1z M0,22h1v1h-1z M6,22h1v1h-1z M8,22h7v1h-7z M16,22h1v1h-1z M21,22h1v1h-1z M23,22h1v1h-1z M26,22h2v1h-2z M29,22h4v1h-4z M0,23h1v1h-1z M2,23h3v1h-3z M7,23h5v1h-5z M13,23h4v1h-4z M19,23h2v1h-2z M23,23h2v1h-2z M28,23h1v1h-1z M30,23h2v1h-2z M0,24h2v1h-2z M3,24h6v1h-6z M11,24h3v1h-3z M15,24h14v1h-14z M31,24h2v1h-2z M8,25h1v1h-1z M12,25h4v1h-4z M18,25h5v1h-5z M24,25h1v1h-1z M28,25h1v1h-1z M30,25h2v1h-2z M0,26h7v1h-7z M8,26h1v1h-1z M10,26h1v1h-1z M12,26h1v1h-1z M14,26h1v1h-1z M16,26h1v1h-1z M18,26h1v1h-1z M20,26h1v1h-1z M23,26h2v1h-2z M26,26h1v1h-1z M28,26h3v1h-3z M0,27h1v1h-1z M6,27h1v1h-1z M13,27h2v1h-2z M21,27h2v1h-2z M24,27h1v1h-1z M28,27h1v1h-1z M30,27h2v1h-2z M0,28h1v1h-1z M2,28h3v1h-3z M6,28h1v1h-1z M8,28h4v1h-4z M13,28h1v1h-1z M16,28h2v1h-2z M19,28h1v1h-1z M21,28h9v1h-9z M31,28h1v1h-1z M0,29h1v1h-1z M2,29h3v1h-3z M6,29h1v1h-1z M8,29h1v1h-1z M10,29h3v1h-3z M16,29h1v1h-1z M20,29h1v1h-1z M22,29h1v1h-1z M24,29h2v1h-2z M27,29h1v1h-1z M31,29h1v1h-1z M0,30h1v1h-1z M2,30h3v1h-3z M6,30h1v1h-1z M11,30h2v1h-2z M14,30h2v1h-2z M21,30h1v1h-1z M24,30h1v1h-1z M28,30h2v1h-2z M31,30h2v1h-2z M0,31h1v1h-1z M6,31h1v1h-1z M9,31h2v1h-2z M12,31h2v1h-2z M15,31h6v1h-6z M26,31h1v1h-1z M29,31h1v1h-1z M31,31h2v1h-2z M0,32h7v1h-7z M10,32h1v1h-1z M13,32h1v1h-1z M16,32h1v1h-1z M18,32h3v1h-3z M22,32h4v1h-4z M28,32h1v1h-1z M30,32h1v1h-1z"/> </svg>