<svg width="303" height="68" viewBox="0 0 303 68" fill="none" xmlns="http://www.w3.org/2000/svg">
<path d="M77.608 5.08C83.5813 5.08 88.552 6.168 92.52 8.344C96.5307 10.4773 99.496 13.336 101.416 16.92C103.336 20.4613 104.296 24.3653 104.296 28.632C104.296 34.136 103.144 38.872 100.84 42.84C98.536 46.808 95.464 49.8373 91.624 51.928C87.784 53.976 83.5813 55 79.016 55H51.944V52.888C54.6747 52.76 56.68 52.3547 57.96 51.672C59.24 50.9893 59.88 49.624 59.88 47.576V12.504C59.88 10.456 59.24 9.09067 57.96 8.408C56.68 7.72533 54.6747 7.32 51.944 7.192V5.08H77.608ZM65.064 47.192C65.064 49.1973 65.6613 50.5413 66.856 51.224C68.0507 51.864 70.0773 52.184 72.936 52.184H78.952C82.536 52.184 85.8 51.3733 88.744 49.752C91.7307 48.1307 94.0987 45.72 95.848 42.52C97.64 39.32 98.536 35.4587 98.536 30.936C98.536 24.0667 96.744 18.52 93.16 14.296C89.6187 10.0293 83.9867 7.896 76.264 7.896H65.064V47.192ZM111.459 10.648C111.459 9.58133 111.8 8.68533 112.483 7.96C113.208 7.23466 114.104 6.872 115.171 6.872C116.238 6.872 117.134 7.23466 117.859 7.96C118.584 8.68533 118.947 9.58133 118.947 10.648C118.947 11.7147 118.584 12.6107 117.859 13.336C117.134 14.0187 116.238 14.36 115.171 14.36C114.104 14.36 113.208 14.0187 112.483 13.336C111.8 12.6107 111.459 11.7147 111.459 10.648ZM118.115 49.496C118.115 50.8187 118.542 51.6933 119.395 52.12C120.291 52.5467 121.678 52.888 123.555 53.144V55H107.811V53.144C109.688 52.888 111.054 52.5467 111.907 52.12C112.803 51.6933 113.251 50.8187 113.251 49.496V27.032L108.131 25.368V24.088L116.323 21.016H118.435L118.115 27.864V49.496ZM153.165 47.768C153.165 49.176 153.442 50.2853 153.997 51.096C154.552 51.864 155.362 52.248 156.429 52.248C157.368 52.248 158.306 52.056 159.245 51.672L159.885 52.888C157.922 54.7227 155.981 55.64 154.061 55.64C152.482 55.64 151.181 55.0853 150.157 53.976C149.133 52.8667 148.578 51.3307 148.493 49.368C146.786 51.2453 145.016 52.7813 143.181 53.976C141.346 55.128 139.042 55.704 136.269 55.704C133.154 55.704 130.722 54.8933 128.973 53.272C127.266 51.608 126.413 49.5387 126.413 47.064C126.413 45.1867 126.818 43.6933 127.629 42.584C128.482 41.432 129.506 40.6 130.701 40.088C131.938 39.5333 133.602 38.9573 135.693 38.36L148.301 34.712V33.176C148.301 30.488 147.554 28.2693 146.061 26.52C144.61 24.728 142.413 23.832 139.469 23.832C137.464 23.832 135.949 24.2587 134.925 25.112C133.944 25.9227 133.453 27.2027 133.453 28.952C133.453 29.8907 133.581 30.744 133.837 31.512L129.613 31.96C129.229 31.6613 128.909 31.2347 128.653 30.68C128.397 30.0827 128.269 29.4853 128.269 28.888C128.269 26.4987 129.464 24.5787 131.853 23.128C134.242 21.6347 137.186 20.888 140.685 20.888C144.568 20.888 147.618 21.848 149.837 23.768C152.056 25.688 153.165 28.6107 153.165 32.536V47.768ZM137.741 52.248C139.661 52.248 141.41 51.8213 142.989 50.968C144.568 50.072 146.338 48.7493 148.301 47V37.336L135.757 41.176C133.069 42.0293 131.725 43.7147 131.725 46.232C131.725 48.1947 132.258 49.688 133.325 50.712C134.434 51.736 135.906 52.248 137.741 52.248ZM191.725 23.384C190.36 23.8533 189.421 24.2373 188.909 24.536C188.44 24.8347 188.056 25.304 187.757 25.944L174.445 55.768H173.549L159.213 25.944C158.872 25.304 158.466 24.856 157.997 24.6C157.57 24.3013 156.653 23.896 155.245 23.384V21.528H169.517V23.384C167.682 23.64 166.424 23.9173 165.741 24.216C165.058 24.472 164.717 24.9627 164.717 25.688C164.717 26.2 164.866 26.776 165.165 27.416L174.829 48.088L183.725 27.416C183.81 27.2027 183.896 26.9253 183.981 26.584C184.109 26.2427 184.173 25.944 184.173 25.688C184.173 24.9627 183.832 24.472 183.149 24.216C182.466 23.9173 181.186 23.64 179.309 23.384V21.528H191.725V23.384ZM217.985 47.768C217.985 49.176 218.262 50.2853 218.817 51.096C219.372 51.864 220.182 52.248 221.249 52.248C222.188 52.248 223.126 52.056 224.065 51.672L224.705 52.888C222.742 54.7227 220.801 55.64 218.881 55.64C217.302 55.64 216.001 55.0853 214.977 53.976C213.953 52.8667 213.398 51.3307 213.313 49.368C211.606 51.2453 209.836 52.7813 208.001 53.976C206.166 55.128 203.862 55.704 201.089 55.704C197.974 55.704 195.542 54.8933 193.793 53.272C192.086 51.608 191.233 49.5387 191.233 47.064C191.233 45.1867 191.638 43.6933 192.449 42.584C193.302 41.432 194.326 40.6 195.521 40.088C196.758 39.5333 198.422 38.9573 200.513 38.36L213.121 34.712V33.176C213.121 30.488 212.374 28.2693 210.881 26.52C209.43 24.728 207.233 23.832 204.289 23.832C202.284 23.832 200.769 24.2587 199.745 25.112C198.764 25.9227 198.273 27.2027 198.273 28.952C198.273 29.8907 198.401 30.744 198.657 31.512L194.433 31.96C194.049 31.6613 193.729 31.2347 193.473 30.68C193.217 30.0827 193.089 29.4853 193.089 28.888C193.089 26.4987 194.284 24.5787 196.673 23.128C199.062 21.6347 202.006 20.888 205.505 20.888C209.388 20.888 212.438 21.848 214.657 23.768C216.876 25.688 217.985 28.6107 217.985 32.536V47.768ZM202.561 52.248C204.481 52.248 206.23 51.8213 207.809 50.968C209.388 50.072 211.158 48.7493 213.121 47V37.336L200.577 41.176C197.889 42.0293 196.545 43.7147 196.545 46.232C196.545 48.1947 197.078 49.688 198.145 50.712C199.254 51.736 200.726 52.248 202.561 52.248ZM255.388 32.088C255.388 29.5707 254.748 27.7573 253.468 26.648C252.188 25.5387 250.353 24.984 247.964 24.984C246.087 24.984 244.06 25.4747 241.884 26.456C239.751 27.4373 237.916 28.632 236.38 30.04V49.496C236.38 50.8187 236.807 51.6933 237.66 52.12C238.556 52.5467 239.943 52.888 241.82 53.144V55H226.076V53.144C227.953 52.888 229.319 52.5467 230.172 52.12C231.068 51.6933 231.516 50.8187 231.516 49.496V27.032L226.396 25.368V24.088L234.588 21.016H236.7L236.38 27.48C238.044 25.688 240.028 24.152 242.332 22.872C244.679 21.5493 247.089 20.888 249.564 20.888C252.849 20.888 255.452 21.7413 257.372 23.448C259.292 25.112 260.252 27.7573 260.252 31.384V49.496C260.252 50.8187 260.679 51.6933 261.532 52.12C262.428 52.5467 263.815 52.888 265.692 53.144V55H249.948V53.144C251.825 52.888 253.191 52.5467 254.044 52.12C254.94 51.6933 255.388 50.8187 255.388 49.496V32.088ZM294.743 47.768C294.743 49.176 295.02 50.2853 295.575 51.096C296.129 51.864 296.94 52.248 298.007 52.248C298.945 52.248 299.884 52.056 300.823 51.672L301.463 52.888C299.5 54.7227 297.559 55.64 295.639 55.64C294.06 55.64 292.759 55.0853 291.735 53.976C290.711 52.8667 290.156 51.3307 290.071 49.368C288.364 51.2453 286.593 52.7813 284.759 53.976C282.924 55.128 280.62 55.704 277.847 55.704C274.732 55.704 272.3 54.8933 270.551 53.272C268.844 51.608 267.991 49.5387 267.991 47.064C267.991 45.1867 268.396 43.6933 269.207 42.584C270.06 41.432 271.084 40.6 272.279 40.088C273.516 39.5333 275.18 38.9573 277.271 38.36L289.879 34.712V33.176C289.879 30.488 289.132 28.2693 287.639 26.52C286.188 24.728 283.991 23.832 281.047 23.832C279.041 23.832 277.527 24.2587 276.503 25.112C275.521 25.9227 275.031 27.2027 275.031 28.952C275.031 29.8907 275.159 30.744 275.415 31.512L271.191 31.96C270.807 31.6613 270.487 31.2347 270.231 30.68C269.975 30.0827 269.847 29.4853 269.847 28.888C269.847 26.4987 271.041 24.5787 273.431 23.128C275.82 21.6347 278.764 20.888 282.263 20.888C286.145 20.888 289.196 21.848 291.415 23.768C293.633 25.688 294.743 28.6107 294.743 32.536V47.768ZM279.319 52.248C281.239 52.248 282.988 51.8213 284.567 50.968C286.145 50.072 287.916 48.7493 289.879 47V37.336L277.335 41.176C274.647 42.0293 273.303 43.7147 273.303 46.232C273.303 48.1947 273.836 49.688 274.903 50.712C276.012 51.736 277.484 52.248 279.319 52.248Z" fill="black"/>
<g clip-path="url(#clip0_3327_3435)">
<path d="M0 0L22.5 5L44 0V38C44 50.1503 34.1503 60 22 60H0V0Z" fill="#D97757"/>
<ellipse cx="3" cy="48" rx="16" ry="27" fill="#EB9174"/>
<circle cx="12.5" cy="18.5" r="10.5" fill="#F9F6EE"/>
<circle cx="31.5" cy="18.5" r="10.5" fill="#F9F6EE"/>
<circle cx="12.5" cy="18.5" r="2.5" fill="#D97757"/>
<circle cx="31.5" cy="18.5" r="2.5" fill="#D97757"/>
<path d="M22 34L16.8038 22.75H27.1962L22 34Z" fill="#F9F6EE"/>
</g>
<defs>
<clipPath id="clip0_3327_3435">
<rect width="44" height="60" fill="white"/>
</clipPath>
</defs>
</svg>
