<svg width="3333" height="1500" viewBox="0 0 3333 1500" fill="none" xmlns="http://www.w3.org/2000/svg">
<path d="M2 616.922C3.08239 615.62 4.81922 615.537 5.14944 614.813C10.4468 603.193 21.1721 599.24 32.1257 596.159C54.2759 589.928 77.0798 587.624 99.9365 585.614C146.543 581.516 193.358 579.026 239.4 570.083C269.39 564.259 299.167 557.347 329.104 551.234C339.484 549.113 350.019 546.869 360.546 546.51C395.13 545.332 429.743 545.026 464.343 544.282C467.964 544.204 470.69 545.053 472.858 548.166C477.577 554.943 483.456 561.076 487.208 568.328C494.887 583.169 485.922 603.123 469.739 607.756C463.448 609.558 456.648 610.053 450.054 610.234C436.732 610.599 423.383 610.003 410.064 610.411C378.203 611.388 346.308 612.332 314.873 618.325C307.405 619.749 300.078 622.023 292.783 624.227C283.328 627.083 277.509 633.586 275.804 643.279C273.853 654.374 272.096 665.518 270.741 676.701C267.069 707.007 263.613 737.341 260.146 767.672C255.422 808.999 252.368 850.436 253.787 892.056C254.341 908.295 256.126 924.491 257.347 940.708C258.892 961.247 251.637 977.685 234.7 989.725C229.748 993.245 224.569 993.349 219.696 990.46C202.663 980.364 188.705 967.825 184.051 947.202C177.561 918.442 176.084 889.353 178.042 860.136C180.261 827.028 182.85 793.913 186.543 760.943C189.828 731.618 194.876 702.491 199.058 673.264C199.716 668.667 200.232 664.005 200.253 659.371C200.295 650.144 197.406 646.597 188.004 646.097C178.73 645.603 169.34 645.821 160.087 646.667C136.952 648.783 113.872 651.499 90.7562 653.833C81.8401 654.734 72.8843 655.237 63.9487 655.947C41.5723 657.724 21.0945 652.752 2.55566 639.44C2 632.615 2 625.23 2 616.922Z" fill="white"/>
<path d="M2695.37 867.588C2720.9 851.459 2741.74 830.753 2763.83 811.577C2769.36 806.783 2774.41 801.45 2779.93 796.646C2799.12 779.934 2810.48 758.6 2818.47 734.757C2822.98 721.273 2829.04 708.153 2835.78 695.608C2842.8 682.532 2857.57 676.86 2870.54 680.41C2883.05 683.832 2893.39 696.242 2893.16 710.106C2893 719.598 2891.08 729.272 2888.52 738.47C2881.94 762.168 2874.57 785.645 2867.52 809.214C2865.17 817.094 2862.82 824.982 2864.58 833.545C2871.62 834.653 2875.26 830.265 2878.37 826.37C2885.22 817.817 2892.02 809.111 2897.72 799.779C2916.12 769.607 2939.63 744.022 2966.41 721.245C2980.81 708.997 2997.71 702.423 3016.3 700.608C3022.06 700.044 3028.36 701.145 3033.93 702.973C3054.51 709.732 3070.16 721.72 3076.84 743.682C3084.41 768.6 3088.53 794.102 3091.97 819.809C3094.32 837.417 3099 854.264 3109.27 869.241C3113.42 875.284 3118.3 878.158 3125.71 878.462C3140.99 879.087 3154.46 873.978 3167.46 866.875C3189.5 854.831 3209.13 839.394 3227.67 822.656C3243.73 808.162 3258.97 792.769 3274.68 777.89C3282.16 770.801 3289.77 763.832 3297.58 757.098C3302.69 752.685 3308.56 749.574 3315.65 749.66C3322.85 749.747 3325.26 751.942 3325.66 759.008C3325.74 760.337 3325.59 761.681 3325.69 763.006C3326.75 776.588 3325.04 788.193 3313.73 798.71C3302.19 809.438 3294.39 824.064 3283.77 835.923C3249.89 873.752 3213.34 908.46 3168.12 932.97C3153.08 941.125 3137.21 944.827 3120.55 946.237C3112.65 946.905 3104.65 947.475 3096.77 946.971C3079.07 945.839 3067.16 934.499 3056.26 922.137C3040.98 904.818 3034.19 883.609 3030.28 861.437C3027.52 845.762 3025.99 829.875 3023.68 814.115C3021.71 800.725 3017.24 788.368 3007.8 778.218C3002.71 772.741 3001.26 771.929 2995.31 776.552C2987.74 782.436 2980.1 788.676 2974.13 796.083C2957.85 816.277 2942.4 837.141 2926.69 857.785C2905.07 886.178 2881.71 912.978 2854.85 936.581C2853.1 938.117 2851.26 939.566 2849.37 940.92C2836.7 949.979 2830.65 950.352 2818.29 937.436C2806.73 925.352 2800.7 909.93 2798.2 893.586C2796.4 881.815 2796.6 869.749 2795.57 857.843C2795.28 854.457 2793.8 851.174 2792.9 847.983C2785.94 847.653 2782.6 851.679 2779.35 855.28C2760.36 876.376 2738.8 894.681 2716.83 912.467C2685.4 937.921 2649.94 956.294 2610.89 966.438C2584.41 973.316 2557.04 975.237 2530.04 967.846C2493.19 957.759 2469.37 934.14 2460.36 896.947C2457.27 884.161 2456.71 870.686 2455.77 857.471C2454.64 841.588 2454.35 825.646 2453.64 808.301C2445.56 808.878 2437.48 809.788 2429.39 809.964C2412.81 810.324 2396.05 812.399 2380.02 805.896C2375.09 803.895 2370.24 801.675 2365.21 799.959C2355.58 796.674 2351.01 797.917 2345.9 806.701C2340.56 815.868 2335.83 825.448 2331.61 835.186C2311.49 881.635 2289.14 926.969 2264.18 970.998C2257.29 983.134 2250.45 995.299 2239.97 1005C2234.52 1010.04 2228.96 1013.43 2221.3 1012.38C2219.34 1012.11 2217.26 1012.06 2215.32 1012.39C2201.02 1014.81 2193.3 1006.41 2188.52 994.994C2184.82 986.175 2182.88 976.616 2180.17 967.381C2176.9 956.233 2174.6 944.69 2170.22 934.004C2156.96 901.722 2142.78 869.816 2129.17 837.676C2120.31 816.753 2114.27 794.992 2112.08 772.342C2110.67 757.837 2108.56 743.231 2111.85 728.697C2115.07 714.441 2122.11 702.843 2135.61 695.965C2156.15 685.496 2180.25 698.027 2183.84 721.357C2185.95 735.13 2186.16 748.99 2184.72 763.042C2183.06 779.285 2184.27 795.867 2189.19 811.435C2198.9 842.193 2209.87 872.555 2220.33 903.076C2220.87 904.647 2221.19 906.495 2222.23 907.652C2224.76 910.463 2227.64 914.955 2230.43 914.998C2233.31 915.043 2236.81 911.028 2239.01 908.034C2241.1 905.192 2241.94 901.404 2243.19 897.979C2258.78 855.183 2274.32 812.368 2289.95 769.588C2291.66 764.911 2293.87 760.416 2295.86 755.844C2303.36 738.613 2317.05 728.001 2333.86 721.032C2336.13 720.091 2339.75 720.794 2342.12 721.981C2354.02 727.936 2366.11 733.666 2377.4 740.667C2398.45 753.733 2420.88 756 2444.55 751.261C2450.4 750.09 2456.2 748.682 2462 747.26C2469.55 745.408 2474.99 740.799 2478.76 734.086C2490.24 713.68 2504.18 695.064 2520.15 677.987C2528.32 669.252 2536.83 660.842 2545.23 652.323C2546.15 651.386 2547.21 650.418 2548.4 649.934C2566.14 642.71 2582.67 631.624 2602.5 630.856C2614.2 630.404 2624.22 636.302 2633.53 642.866C2651.61 655.617 2659.82 673.486 2661.84 695.293C2664.95 728.878 2652.02 756.415 2631.25 781.166C2611.01 805.278 2586.41 824.69 2561.93 844.207C2552.05 852.082 2542.29 860.144 2532.97 868.656C2525.51 875.464 2525.71 883.19 2532.95 890.179C2544.4 901.239 2558.12 907.108 2574.15 907.687C2597.54 908.533 2619.89 903.465 2641.09 894.344C2659.38 886.481 2676.9 876.833 2695.37 867.588ZM2558.22 721.263C2538.49 745.431 2529.89 774.376 2522.98 803.991C2522.42 806.4 2523.67 809.231 2524.4 813.971C2530.88 809.879 2535.96 807.416 2540.15 803.897C2559.37 787.771 2576.22 769.405 2590.34 748.649C2596.91 738.996 2602.51 728.749 2605.1 717.196C2607.11 708.26 2604.53 699.842 2599.05 696.512C2593.26 692.994 2585.85 694.415 2578.31 701.284C2571.68 707.318 2565.56 713.898 2558.22 721.263Z" fill="white"/>
<path d="M718.624 786.155C706.853 797.059 695.181 807.043 684.64 818.103C661.915 841.946 639.554 866.247 621.056 893.577C609.155 911.161 598.984 929.922 588.151 948.222C579.521 962.801 571.677 977.894 562.259 991.937C557.771 998.628 550.964 1004.17 544.256 1008.87C534.6 1015.63 518.874 1013.61 510.16 1005.64C500.573 996.878 495.678 986.696 497.453 973.026C502.021 937.819 505.94 902.524 509.811 867.231C512.885 839.203 515.861 811.154 518.237 783.06C521.286 747.011 523.632 710.904 526.395 674.831C528.245 650.678 530.023 626.515 532.35 602.407C533.816 587.224 535.235 571.914 538.487 557.058C542.466 538.88 551.773 523.378 570.049 516.237C576.55 513.697 584.408 513.926 591.6 514.188C594.652 514.299 598.577 517.077 600.399 519.789C608.509 531.863 613.015 544.429 610.727 559.989C603.001 612.515 596.569 665.232 589.644 717.876C585.187 751.758 580.855 785.658 576.181 819.51C575.186 826.715 572.734 833.707 571.365 840.876C570.436 845.74 569.718 850.757 569.876 855.674C569.982 858.979 571.785 862.23 573.485 867.567C577.889 863.104 581.179 860.447 583.629 857.164C592.187 845.7 600.165 833.796 608.9 822.473C622.49 804.855 635.995 787.122 650.539 770.305C661.17 758.013 673.112 746.788 685.078 735.747C690.367 730.867 696.906 727.13 703.334 723.74C714.512 717.844 725.942 712.393 737.466 707.197C744.664 703.952 751.893 700.368 760.397 703.621C771.756 707.967 783.018 712.552 788.654 724.223C791.943 731.032 794.684 738.386 796.046 745.793C800.489 769.948 803.842 794.303 808.294 818.456C811.06 833.463 814.651 848.352 818.622 863.092C821.907 875.286 825.869 877.756 838.612 878.318C849.693 878.806 860.401 877.111 871.04 873.908C897.912 865.819 921.354 851.7 942.989 834.184C951.003 827.696 959.094 821.289 967.36 815.127C987.866 799.843 1000.91 778.963 1009.04 755.499C1019.07 726.53 1036.72 702.682 1055.33 679.19C1068.84 662.126 1085.35 649.124 1106.16 641.948C1109.27 640.875 1112.24 639.199 1115.03 637.413C1123.98 631.672 1133.87 630.611 1143.84 632.634C1170.26 637.992 1193.93 657.147 1199.75 687.117C1204.51 711.582 1200.05 734.405 1187.02 755.961C1171.11 782.284 1150.19 803.842 1126.59 823.081C1110.6 836.11 1094.44 848.931 1078.39 861.88C1076.07 863.756 1073.85 865.778 1071.67 867.824C1061.84 877.057 1061.46 881.507 1072.72 892.648C1083.52 903.336 1097.83 906.872 1112.86 907.698C1139.56 909.164 1163.96 900.496 1188.23 891.12C1214.63 880.915 1237.68 865.092 1259.19 847.121C1289.81 821.535 1319.82 795.223 1350.16 769.293C1353.69 766.275 1357.54 763.611 1361.36 760.962C1367.35 756.817 1369.44 757.023 1375.37 761.907C1382.31 767.629 1384.45 772.284 1381.68 777.933C1379.2 782.983 1376.26 787.923 1372.8 792.35C1339.71 834.708 1303.6 874.16 1260.63 906.807C1246.6 917.47 1231.98 927.361 1217.56 937.512C1210.73 942.316 1203.35 945.784 1195.29 948.383C1188.78 950.485 1183.3 955.75 1176.81 957.968C1164.28 962.246 1151.54 966.346 1138.56 968.742C1116.57 972.8 1094.49 972.913 1072.21 968.77C1035.19 961.885 1001.86 929.073 995.989 888.682C995.182 883.129 993.878 877.56 992.025 872.271C989.614 865.394 985.304 863.739 978.805 867.056C974.992 869.002 971.472 871.676 968.172 874.443C956.71 884.053 945.938 894.574 933.93 903.427C905.209 924.602 874.026 940.459 837.718 943.824C835.73 944.009 833.696 944.019 831.767 944.47C801.298 951.592 765.596 931.494 756.012 898.878C751.631 883.968 748.828 868.528 746.258 853.169C743.029 833.866 740.772 814.401 738.094 795.006C738.048 794.676 737.969 794.351 737.912 794.022C735.511 780.201 731.647 778.484 718.624 786.155ZM1106.25 777.253C1118.71 764.15 1129.39 749.758 1137.48 733.554C1141.88 724.748 1144.12 715.471 1141.81 705.603C1139.56 695.974 1130.19 692.052 1122 697.527C1109.19 706.093 1098.39 716.934 1088.49 728.654C1086.62 730.868 1085.58 733.84 1084.41 736.574C1082.2 741.764 1080.06 746.992 1078.1 752.281C1072.9 766.3 1067.6 780.291 1062.79 794.443C1061.22 799.046 1059.41 805.071 1063.95 808.451C1069.1 812.273 1074.44 808.355 1078.26 804.838C1087.54 796.291 1096.29 787.156 1106.25 777.253Z" fill="white"/>
<path d="M1918.49 952.485C1907.61 959.658 1897.46 966.659 1886.98 973.12C1881.94 976.227 1876.34 978.483 1870.86 980.819C1864.45 983.557 1857.8 985.748 1851.41 988.56C1839.42 993.849 1826.91 997.282 1813.86 997.72C1785.98 998.656 1758.07 999.298 1730.17 999.453C1724.79 999.483 1718.94 997.618 1714.07 995.136C1684.91 980.284 1662.3 958.118 1644.29 931.054C1629.64 909.033 1620.99 884.7 1618.75 858.475C1617.76 847.009 1618.63 835.162 1620.31 823.729C1626.18 783.661 1637.65 745.193 1656.63 709.286C1679.48 666.055 1707.59 626.651 1743.44 593.076C1772.84 565.539 1806.5 545.249 1845.65 535.252C1857.07 532.336 1869.32 532.11 1881.23 531.805C1904.88 531.201 1928.31 533.362 1951.42 538.894C1983.28 546.52 2010.71 561.987 2034.13 584.712C2040.33 590.734 2046.34 596.982 2052.11 603.424C2066.12 619.074 2074.1 637.666 2075.46 658.433C2076.98 681.642 2077.63 704.935 2074.49 728.172C2071.78 748.234 2064.35 766.703 2056.07 784.845C2041.54 816.709 2025.52 847.924 2001.36 873.687C1975.44 901.333 1948.62 928.18 1918.49 952.485ZM1731.52 724.614C1729.85 727.875 1728.06 731.078 1726.55 734.406C1708.17 774.754 1695.43 816.229 1699.61 861.444C1703.1 899.189 1738.67 937.79 1782.49 932.851C1817.65 928.888 1849.19 917.417 1877.47 897.267C1918.67 867.92 1951.64 831.122 1974.55 785.539C1991.24 752.341 1997.39 717.002 1997.43 680.432C1997.45 666.102 1993.89 652.053 1985.4 639.909C1971.51 620.043 1951.74 608.232 1929.66 599.736C1926.61 598.566 1923.23 597.868 1919.98 597.739C1904.38 597.123 1888.77 596.653 1873.16 596.378C1861.33 596.17 1849.81 598.236 1839.88 604.915C1830 611.561 1820.12 618.427 1811.28 626.358C1779.9 654.518 1752.72 686.232 1731.52 724.614Z" fill="white"/>
</svg>
